<?xml version="1.0" encoding="UTF-8"?>
<svg width="48px" height="48px" viewBox="0 0 48 48" version="1.1" xmlns="http://www.w3.org/2000/svg" xmlns:xlink="http://www.w3.org/1999/xlink">
    <title>插件</title>
    <g id="3-登陆页" stroke="none" stroke-width="1" fill="none" fill-rule="evenodd">
        <g id="3001登陆页" transform="translate(-271.000000, -458.000000)">
            <g id="编组备份" transform="translate(30.000000, 438.000000)">
                <g id="插件" transform="translate(241.000000, 20.000000)">
                    <rect id="矩形" stroke="#979797" fill="#D8D8D8" opacity="0" x="0.5" y="0.5" width="47" height="47"></rect>
                    <g id="编组-5" transform="translate(5.000000, 2.000000)">
                        <g id="连接-(1)备份" transform="translate(6.695652, 10.521739)" fill="#E9D3FF" fill-rule="nonzero">
                            <path d="M21.7535448,1.21331767 C20.9676459,0.42741874 19.9335683,3.01690934e-15 18.8167646,3.01690934e-15 C17.7137485,3.01690934e-15 16.6658833,0.427418712 15.8799843,1.21331767 L11.150803,5.94249903 C10.9853506,6.10795143 10.9853506,6.36991774 11.150803,6.52158245 C11.3162554,6.68703485 11.5782217,6.68703485 11.7298864,6.52158245 L16.4590678,1.79240109 C17.0795143,1.17195456 17.920564,0.827262038 18.8029769,0.827262038 C19.6853897,0.827262038 20.5264395,1.17195456 21.146886,1.79240109 C22.4429299,3.08844495 22.4429299,5.18417546 21.146886,6.48021934 L14.8734822,12.7536232 C13.5774383,14.049667 11.4817078,14.049667 10.1856639,12.7536232 C10.0202115,12.5881708 9.75824521,12.5881708 9.6065805,12.7536232 C9.4411281,12.9190756 9.4411281,13.1810419 9.6065805,13.3327066 C10.4200548,14.1461809 11.4817078,14.5460243 12.5433607,14.5460243 C13.6050137,14.5460243 14.6666667,14.1461809 15.480141,13.3327066 L21.7535448,7.05930276 C23.3667058,5.45992949 23.3667058,2.82647867 21.7535448,1.21331767 Z" id="路径"></path>
                            <path d="M11.2335292,16.4349393 L6.5043478,21.1641206 C5.20830395,22.4601645 3.11257344,22.4601645 1.81652955,21.1641206 C0.520485697,19.8680768 0.520485697,17.7723463 1.81652955,16.4763024 L8.08993339,10.1891108 C8.71037991,9.56866432 9.55142967,9.22397179 10.4338425,9.22397179 C11.3162553,9.22397179 12.1573051,9.56866432 12.7777516,10.1891108 C12.943204,10.3545632 13.2051703,10.3545632 13.3568351,10.1891108 C13.5222875,10.0236584 13.5222875,9.76169213 13.3568351,9.61002742 C12.5709361,8.82412849 11.5368586,8.39670975 10.4200548,8.39670975 C9.30325108,8.39670975 8.26917351,8.82412847 7.48327458,9.61002742 L1.20987075,15.8834313 C-0.403290249,17.4965923 -0.403290249,20.1300431 1.20987075,21.7432041 C1.99576968,22.529103 3.02984725,22.9565217 4.14665099,22.9565217 C5.24966705,22.9565217 6.2975323,22.529103 7.08343123,21.7432041 L11.8126126,17.0140227 C11.978065,16.8485703 11.978065,16.586604 11.8126126,16.4349393 C11.6471602,16.2694869 11.3851939,16.2694869 11.2335292,16.4349393 Z" id="路径"></path>
                        </g>
                        <path d="M-7.10542736e-15,31.5652174 L-7.10542736e-15,30.9276269 L-7.10542736e-15,15.3043478 C-7.10542736e-15,8.43680702 5.56724181,2.86956522 12.4347826,2.86956522 L25.6652316,2.86956522 L28.6956522,2.86956522 M38.2608696,15.3043478 L38.2608696,12.5652066 L38.2608696,28.6956522 C38.2608696,35.563193 32.6936278,41.1304348 25.826087,41.1304348 L12.6112235,41.1304348 L9.56521739,41.1304348" id="形状" stroke="#E9D3FF" stroke-width="0.8"></path>
                        <circle id="椭圆形" fill="#FF97D3" cx="31.5652174" cy="2.86956522" r="2.86956522"></circle>
                        <circle id="椭圆形备份-4" fill="#FF97D3" cx="6.69565217" cy="41.1304348" r="2.86956522"></circle>
                    </g>
                </g>
            </g>
        </g>
    </g>
</svg>