<?xml version="1.0" encoding="UTF-8"?>
<svg width="48px" height="48px" viewBox="0 0 48 48" version="1.1" xmlns="http://www.w3.org/2000/svg" xmlns:xlink="http://www.w3.org/1999/xlink">
    <title>本地</title>
    <g id="3-登陆页" stroke="none" stroke-width="1" fill="none" fill-rule="evenodd">
        <g id="3001登陆页" transform="translate(-271.000000, -342.000000)">
            <g id="编组" transform="translate(30.000000, 322.000000)">
                <g id="本地" transform="translate(241.000000, 20.000000)">
                    <rect id="矩形" stroke="#979797" fill="#D8D8D8" opacity="0" x="0.5" y="0.5" width="47" height="47"></rect>
                    <g id="个人中心-线性" transform="translate(4.000000, 4.000000)">
                        <path d="M27.1040004,0.800001218 C33.7816946,0.806616076 39.1933852,6.2183066 39.2,12.8960008 L39.2,27.1040004 C39.1933852,33.7816946 33.7816946,39.1933852 27.1040004,39.2 L12.8960008,39.2 C6.2183066,39.1933852 0.806616076,33.7816946 0.800001218,27.1040004 L0.800001218,12.8960008 C0.806616076,6.2183066 6.2183066,0.806616076 12.8960008,0.800001218 L27.1040004,0.800001218 M27.1040004,6.20904677e-07 L12.8960008,6.20904677e-07 C9.4754438,-0.00106021822 6.19467908,1.35728069 3.77597988,3.77597988 C1.35728069,6.19467908 -0.00106021822,9.4754438 6.20904674e-07,12.8960008 L6.20904674e-07,27.1040004 C-0.00106021822,30.5245574 1.35728069,33.8053222 3.77597988,36.2240214 C6.19467908,38.6427206 9.4754438,40.0010615 12.8960008,40.0000006 L27.1040004,40.0000006 C30.5245574,40.0010615 33.8053222,38.6427206 36.2240214,36.2240214 C38.6427206,33.8053222 40.0010615,30.5245574 40.0000006,27.1040004 L40.0000006,12.8960008 C40.0010615,9.4754438 38.6427206,6.19467908 36.2240214,3.77597988 C33.8053222,1.35728069 30.5245574,-0.00106021822 27.1040004,6.20904677e-07 Z" id="形状" fill="#E9D3FF" fill-rule="nonzero"></path>
                        <circle id="椭圆形" fill="#FF97D3" cx="28" cy="14" r="4"></circle>
                        <path d="M20.1040006,5.90000106 C22.8692683,5.90000106 25.3621746,7.56597254 26.4200227,10.1209017 C27.4778708,12.6758309 26.8922781,15.6164298 24.9363664,17.5711971 C22.9804547,19.5259643 20.0395135,20.1098357 17.4852039,19.0504924 C14.9308944,17.991149 13.2663828,15.4972681 13.2679997,12.7320008 C13.272413,8.95905902 16.3310568,5.90220488 20.1040006,5.90000106 M20.1040006,5.10000003 C17.0147996,5.09838328 14.2289567,6.95824169 13.0460232,9.81198203 C11.8630897,12.6657224 12.5161392,15.9510717 14.7005345,18.135467 C16.8849297,20.3198623 20.1702791,20.9729118 23.0240194,19.7899783 C25.8777598,18.6070448 27.7376182,15.8212019 27.7360014,12.7320008 C27.7337935,8.51787824 24.3181232,5.10220801 20.1040006,5.10000003 Z" id="形状" fill="#E9D3FF" fill-rule="nonzero"></path>
                        <path d="M30.6080003,33.5720002 C30.3870864,33.5720002 30.2080003,33.3929141 30.2080003,33.1720002 C30.2080003,27.0400004 25.6760004,22.0520006 20.1040006,22.0520006 C14.5320008,22.0520006 10.0000009,27.0400004 10.0000009,33.1720002 C10.0000009,33.3929141 9.82091484,33.5720002 9.60000094,33.5720002 C9.37908705,33.5720002 9.20000096,33.3929141 9.20000096,33.1720002 C9.20000096,26.6000004 14.0920008,21.2520006 20.1080006,21.2520006 C26.1240004,21.2520006 31.0080003,26.6000004 31.0080003,33.1720002 C31.0080003,33.3929141 30.8289142,33.5720002 30.6080003,33.5720002 L30.6080003,33.5720002 Z" id="路径" fill="#E9D3FF" fill-rule="nonzero"></path>
                    </g>
                </g>
            </g>
        </g>
    </g>
</svg>